# xmcd CD database file
#
# Track frame offsets:
#	150
#	7102
#	17047
#	28015
#	36865
#	47852
#	54962
#	71537
#	78625
#	93415
#	106870
#	123342
#	138460
#	164410
#	205002
#
# Disc length: 2851 seconds
#
# Revision: 0
# Processed by: cddbd v1.5PL3 Copyright (c) Steve Scherf et al.
# Submitted via: CDex 1.50
#
DISCID=c60b210f
DTITLE=COMBO PIANO/NARUYOSHI KIKUCHI - SONIC abstractures, based on the motion picture"10 Minutes Older"
DYEAR=2003
DGENRE=Jazz
TTITLE0=TEN THOUSAND YEARS OLDER
TTITLE1=100 FLOWERS HIDDEN DEEP
TTITLE2=WE WUZ ROBBED
TTITLE3=INT.TRAILER. NIGHT
TTITLE4=TWELVE MILES TO TRONA
TTITLE5=LIFELINE
TTITLE6=DOGS HAVE NO HELL
TTITLE7=ABOUT TIME 2  《spielplatz eins/遊園地1》
TTITLE8=ONE MOMENT 《orchid/蘭》
TTITLE9=THE ENLIGHTENMENT 《una commedia musicale/ミュージカル》
TTITLE10=HISTOIRE D'EAUX 《Comment puis-je me rendre a la jardin botanique?/動物園へはどう行けばいいですか?》
TTITLE11=DANS LE NOIR DU TEMPS 《about time/時間について》
TTITLE12=TEN MINUTES AFTER 《parla/宝石》
TTITLE13=ADDICTED TO THE STARS 《over the rainbow/虹の彼方に》
TTITLE14=VERS NANCY 《spielplantz zwei/遊園地2》
EXTD=YEAR: 2003
EXTT0=
EXTT1=
EXTT2=
EXTT3=
EXTT4=
EXTT5=
EXTT6=
EXTT7=
EXTT8=
EXTT9=
EXTT10=
EXTT11=
EXTT12=
EXTT13=
EXTT14=
PLAYORDER=
